<svg width="32" height="28" viewBox="0 0 32 28" fill="none" xmlns="http://www.w3.org/2000/svg">
<path d="M8.991 27.3419C10.0421 27.3419 10.8942 26.5413 10.8942 25.5538C10.8942 24.5662 10.0421 23.7657 8.991 23.7657C7.93991 23.7657 7.08783 24.5662 7.08783 25.5538C7.08783 26.5413 7.93991 27.3419 8.991 27.3419Z" fill="#195557"/>
<path d="M20.5539 27.3419C21.605 27.3419 22.4571 26.5413 22.4571 25.5538C22.4571 24.5662 21.605 23.7657 20.5539 23.7657C19.5028 23.7657 18.6508 24.5662 18.6508 25.5538C18.6508 26.5413 19.5028 27.3419 20.5539 27.3419Z" fill="#195557"/>
<path d="M25.6967 6.17868C25.618 6.08752 25.5187 6.01387 25.4061 5.96303C25.2935 5.91218 25.1703 5.88541 25.0454 5.88464H7.43453L7.98434 7.47407H23.9373L21.6788 17.0106H8.99091L5.12533 5.51112C5.08352 5.3891 5.01091 5.27839 4.9137 5.18844C4.81649 5.09849 4.69756 5.03197 4.56706 4.99456L1.09903 3.99322C0.992394 3.96243 0.880348 3.95168 0.769288 3.96157C0.658228 3.97147 0.550331 4.00182 0.451756 4.0509C0.252676 4.15001 0.103655 4.31936 0.0374756 4.5217C-0.0287036 4.72404 -0.00661964 4.9428 0.0988691 5.12984C0.204358 5.31688 0.384611 5.45689 0.599973 5.51907L3.63661 6.39325L7.51912 17.9166L6.1319 18.9815L6.02194 19.0848C5.67881 19.4564 5.48431 19.9287 5.47196 20.4204C5.45961 20.9122 5.63017 21.3926 5.95427 21.7789C6.18482 22.0423 6.47778 22.2514 6.80973 22.3894C7.14167 22.5274 7.50338 22.5905 7.86592 22.5736H21.9833C22.2077 22.5736 22.4228 22.4899 22.5815 22.3409C22.7401 22.1918 22.8292 21.9897 22.8292 21.7789C22.8292 21.5682 22.7401 21.366 22.5815 21.217C22.4228 21.0679 22.2077 20.9842 21.9833 20.9842H7.73058C7.63318 20.9811 7.53828 20.9544 7.45505 20.9068C7.37182 20.8591 7.30308 20.7921 7.25546 20.7122C7.20784 20.6323 7.18295 20.5423 7.1832 20.4507C7.18346 20.3591 7.20884 20.2692 7.2569 20.1895L9.29542 18.6001H22.3555C22.551 18.6046 22.7422 18.5452 22.8964 18.4322C23.0506 18.3192 23.1584 18.1595 23.2014 17.9802L25.8828 6.85419C25.9085 6.73571 25.9051 6.61328 25.8728 6.49622C25.8406 6.37916 25.7803 6.27056 25.6967 6.17868Z" fill="#195557"/>
<circle cx="25.2445" cy="7.23749" r="6.75556" fill="#FFEDCD"/>
<path d="M27.2107 8.64723V9.61523H23.9947V8.64723H25.0987V4.95123C25.0561 5.01523 24.9841 5.08723 24.8827 5.16723C24.7867 5.2419 24.6747 5.31657 24.5467 5.39123C24.4241 5.46057 24.2961 5.51923 24.1627 5.56723C24.0347 5.61523 23.9174 5.63923 23.8107 5.63923V4.64723C23.9547 4.64723 24.1014 4.6099 24.2507 4.53523C24.4001 4.45523 24.5361 4.3699 24.6587 4.27923C24.7867 4.18323 24.8907 4.09523 24.9707 4.01523C25.0507 3.93523 25.0934 3.8899 25.0987 3.87923H26.1947V8.64723H27.2107Z" fill="black"/>
</svg>
