<svg aria-hidden="true" style="position: absolute; width: 0; height: 0; overflow: hidden;" version="1.1" xmlns="http://www.w3.org/2000/svg" xmlns:xlink="http://www.w3.org/1999/xlink">
<defs>
<symbol id="icon-phone" viewBox="0 0 32 32">
<path fill="#195557" style="fill: var(--color1, #195557)" d="M21.724 21.902l2.655-2.655c0.469-0.463 1.113-0.749 1.824-0.749 0.342 0 0.668 0.066 0.967 0.186l-0.017-0.006 3.236 1.292c0.946 0.392 1.602 1.303 1.612 2.369v5.927c-0.012 1.412-1.159 2.551-2.572 2.551-0.046 0-0.091-0.001-0.137-0.004l0.006 0c-22.673-1.41-27.247-20.61-28.113-27.959-0.010-0.085-0.016-0.184-0.016-0.284 0-1.42 1.151-2.572 2.572-2.572 0.006 0 0.011 0 0.017 0h5.724c1.069 0.003 1.984 0.662 2.364 1.595l0.006 0.017 1.292 3.236c0.12 0.286 0.189 0.618 0.189 0.966 0 0.705-0.285 1.344-0.747 1.807l-2.655 2.655s1.529 10.347 11.793 11.627z"></path>
</symbol>
<symbol id="icon-Logo" viewBox="0 0 69 32">
<path fill="#195557" style="fill: var(--color1, #195557)" d="M39.159 12.483c0 0.243 0.197 0.44 0.44 0.44h0.806c0.243 0 0.44-0.197 0.44-0.44s-0.197-0.44-0.44-0.44h-0.806c-0.243 0-0.44 0.197-0.44 0.44v0z"></path>
<path fill="#195557" style="fill: var(--color1, #195557)" d="M44.916 14.866c-0.090 0-0.179 0.008-0.266 0.023l-2.897-4.807c0.011-0.013 0.022-0.028 0.032-0.043l0.001-0.002 1.946-3.090c0.042-0.066 0.068-0.148 0.068-0.234 0-0.226-0.17-0.412-0.39-0.437l-0.002-0-3.192-0.354 0.362-3.191c0.002-0.015 0.003-0.032 0.003-0.050 0-0.243-0.197-0.44-0.44-0.44-0.052 0-0.102 0.009-0.149 0.026l0.003-0.001-3.032 1.061-1.058-3.032c-0.062-0.173-0.224-0.295-0.415-0.295-0.121 0-0.231 0.049-0.311 0.129v0l-2.268 2.275-2.269-2.275c-0.080-0.080-0.189-0.129-0.311-0.129-0.191 0-0.353 0.122-0.414 0.291l-0.001 0.003-1.059 3.032-3.032-1.061c-0.043-0.016-0.093-0.025-0.145-0.025-0.243 0-0.44 0.197-0.44 0.44 0 0.018 0.001 0.035 0.003 0.052l-0-0.002 0.362 3.191-3.192 0.354c-0.221 0.025-0.391 0.211-0.391 0.437 0 0.087 0.025 0.168 0.069 0.236l-0.001-0.002 1.711 2.717-2.719 1.708c-0.124 0.079-0.206 0.216-0.206 0.372s0.081 0.293 0.204 0.371l0.002 0.001 2.719 1.708-1.711 2.717c-0.043 0.067-0.068 0.148-0.068 0.235 0 0.243 0.197 0.44 0.44 0.44v0l21.098 0.024c0.279 0.466 0.78 0.773 1.353 0.774h0c0.869-0.001 1.573-0.705 1.574-1.574v-0c-0.001-0.868-0.705-1.572-1.574-1.573h-0zM43.344 16.361l-7.837-0.009c-1.039-3.515 1.532-6.25 4.531-7.414l3.82 6.338c-0.298 0.271-0.491 0.653-0.513 1.081l-0 0.004zM24.783 13.921c0.042-0.066 0.068-0.147 0.068-0.234 0-0.156-0.081-0.293-0.204-0.371l-0.002-0.001-2.499-1.57 2.499-1.57c0.124-0.079 0.206-0.216 0.206-0.372 0-0.087-0.025-0.168-0.069-0.236l0.001 0.002-1.572-2.497 2.933-0.326c0.221-0.025 0.391-0.211 0.391-0.437 0-0.017-0.001-0.034-0.003-0.051l0 0.002-0.333-2.933 2.785 0.975c0.043 0.016 0.093 0.025 0.145 0.025 0.191 0 0.353-0.121 0.414-0.291l0.001-0.003 0.973-2.786 2.084 2.090c0.080 0.080 0.19 0.129 0.311 0.129s0.232-0.049 0.311-0.129l2.084-2.090 0.972 2.786c0.062 0.173 0.224 0.294 0.414 0.294 0.052 0 0.102-0.009 0.149-0.026l-0.003 0.001 2.786-0.975-0.333 2.933c-0.002 0.015-0.003 0.032-0.003 0.050 0 0.226 0.17 0.412 0.389 0.437l0.002 0 2.933 0.326-1.367 2.17-0.644-1.069c-0.078-0.128-0.218-0.212-0.376-0.212-0.052 0-0.101 0.009-0.147 0.025l0.003-0.001c-2.016 0.698-3.672 1.917-4.662 3.432-0.987 1.51-1.268 3.204-0.826 4.933l-11.333-0.013 1.521-2.417zM44.916 17.134c-0.383-0-0.694-0.311-0.694-0.694v-0c0-0.383 0.312-0.694 0.694-0.694s0.694 0.311 0.694 0.694c0 0.383-0.312 0.694-0.694 0.694zM9.041 31.183c0.025 0 0.037 0.025 0.037 0.074s-0.012 0.074-0.037 0.074c-0.288 0-0.519-0.004-0.692-0.012l-0.951-0.012-1.112 0.012c-0.148 0.008-0.35 0.012-0.605 0.012-0.025 0-0.037-0.025-0.037-0.074s0.012-0.074 0.037-0.074c0.305 0 0.527-0.021 0.667-0.062s0.235-0.12 0.284-0.235 0.074-0.3 0.074-0.556v-2.841h-3.989v2.841c0 0.247 0.025 0.432 0.074 0.556 0.049 0.115 0.144 0.194 0.284 0.235s0.362 0.062 0.667 0.062c0.017 0 0.025 0.025 0.025 0.074s-0.008 0.074-0.025 0.074c-0.288 0-0.519-0.004-0.692-0.012l-1.075-0.012-0.926 0.012c-0.179 0.008-0.39 0.013-0.601 0.013-0.027 0-0.055-0-0.082-0l0.004 0c-0.017 0-0.025-0.025-0.025-0.074s0.008-0.074 0.025-0.074c0.288 0 0.498-0.021 0.63-0.062 0.123-0.034 0.221-0.12 0.271-0.232l0.001-0.003c0.049-0.123 0.074-0.309 0.074-0.556v-5.718c0-0.247-0.025-0.428-0.074-0.543-0.050-0.115-0.149-0.201-0.269-0.234l-0.003-0.001c-0.123-0.049-0.326-0.074-0.605-0.074-0.025 0-0.037-0.025-0.037-0.074s0.012-0.074 0.037-0.074l0.667 0.012c0.379 0.017 0.683 0.025 0.914 0.025 0.386-0.001 0.767-0.010 1.145-0.027l-0.058 0.002 0.679-0.012c0.017 0 0.025 0.025 0.025 0.074s-0.008 0.074-0.025 0.074c-0.296 0-0.515 0.025-0.655 0.074-0.132 0.043-0.237 0.136-0.295 0.256l-0.001 0.003c-0.049 0.115-0.074 0.296-0.074 0.543v2.507h3.989v-2.507c0-0.247-0.025-0.428-0.074-0.543-0.049-0.123-0.144-0.21-0.284-0.259s-0.362-0.074-0.667-0.074c-0.025 0-0.037-0.025-0.037-0.074s0.012-0.074 0.037-0.074l0.605 0.012c0.412 0.017 0.782 0.025 1.112 0.025 0.222 0 0.539-0.008 0.951-0.025l0.692-0.012c0.025 0 0.037 0.025 0.037 0.074s-0.012 0.074-0.037 0.074c-0.28 0-0.49 0.025-0.63 0.074-0.123 0.034-0.221 0.12-0.271 0.232l-0.001 0.003c-0.041 0.115-0.062 0.296-0.062 0.543v5.718c0 0.247 0.021 0.432 0.062 0.556 0.049 0.115 0.14 0.194 0.272 0.235s0.342 0.062 0.63 0.062zM15.558 29.368c0-0.017 0.017-0.025 0.049-0.025 0.001-0 0.001-0 0.002-0 0.023 0 0.044 0.009 0.060 0.025v0c0.025 0.008 0.037 0.017 0.037 0.025-0.074 0.523-0.119 1.131-0.123 1.749l-0 0.005c0 0.066-0.012 0.115-0.037 0.148-0.025 0.025-0.074 0.037-0.148 0.037h-5.459c-0.025 0-0.037-0.025-0.037-0.074s0.012-0.074 0.037-0.074c0.264 0 0.453-0.021 0.568-0.062 0.116-0.034 0.207-0.121 0.246-0.232l0.001-0.003c0.041-0.123 0.062-0.309 0.062-0.556v-5.718c0-0.247-0.021-0.428-0.062-0.543-0.040-0.114-0.131-0.2-0.244-0.234l-0.003-0.001c-0.123-0.049-0.313-0.074-0.568-0.074-0.025 0-0.037-0.025-0.037-0.074s0.012-0.074 0.037-0.074h5.237c0.082 0 0.123 0.037 0.123 0.111l0.025 1.643c0 0.017-0.025 0.029-0.074 0.037-0.042 0.008-0.066 0-0.074-0.025-0.132-0.477-0.354-0.831-0.667-1.062s-0.724-0.346-1.235-0.346h-0.371c-0.247 0-0.428 0.053-0.543 0.161s-0.173 0.272-0.173 0.494v2.52h1.025c0.477 0 0.844-0.083 1.099-0.247s0.383-0.395 0.383-0.692c0-0.025 0.020-0.037 0.062-0.037 0.049 0 0.074 0.012 0.074 0.037l-0.012 1.112 0.012 0.593c0.017 0.28 0.025 0.502 0.025 0.667 0 0.017-0.025 0.025-0.074 0.025s-0.074-0.008-0.074-0.025c0-0.337-0.132-0.601-0.395-0.79-0.255-0.198-0.626-0.296-1.112-0.296h-1.013v2.791c0 0.239 0.045 0.415 0.136 0.531s0.235 0.173 0.432 0.173h0.408c0.642 0 1.156-0.132 1.544-0.395s0.671-0.671 0.852-1.223zM20.273 31.381c-0.263 0-0.576-0.012-0.939-0.037-0.131-0.008-0.296-0.017-0.494-0.025-0.182-0.008-0.395-0.012-0.609-0.012-0.012 0-0.023 0-0.035 0h0.002l-0.914 0.012c-0.165 0.008-0.387 0.012-0.667 0.012-0.016 0-0.025-0.025-0.025-0.074s0.008-0.074 0.025-0.074c0.264 0 0.457-0.021 0.581-0.062 0.116-0.034 0.207-0.121 0.246-0.232l0.001-0.003c0.049-0.123 0.074-0.309 0.074-0.556v-5.718c0-0.247-0.025-0.428-0.074-0.543-0.040-0.114-0.131-0.2-0.244-0.234l-0.003-0.001c-0.115-0.049-0.3-0.074-0.556-0.074-0.025 0-0.037-0.025-0.037-0.074s0.012-0.074 0.037-0.074l0.655 0.012c0.379 0.017 0.679 0.025 0.902 0.025 0.338 0 0.684-0.012 1.037-0.037 0.428-0.017 0.716-0.025 0.865-0.025 0.832 0 1.569 0.165 2.211 0.494 0.651 0.33 1.153 0.778 1.507 1.346s0.531 1.206 0.531 1.914c0 0.799-0.185 1.507-0.556 2.124-0.359 0.602-0.861 1.085-1.462 1.41l-0.020 0.010c-0.618 0.33-1.297 0.494-2.038 0.494zM20.149 31.097c0.528 0 0.993-0.132 1.396-0.395 0.404-0.272 0.716-0.671 0.939-1.198 0.231-0.527 0.346-1.157 0.346-1.89 0-0.7-0.107-1.334-0.321-1.902-0.213-0.577-0.519-1.029-0.914-1.359-0.36-0.307-0.831-0.494-1.346-0.494-0.009 0-0.018 0-0.027 0h0.001c-0.51 0-0.86 0.049-1.050 0.148s-0.284 0.309-0.284 0.63v5.558c0 0.33 0.086 0.564 0.259 0.704 0.173 0.132 0.506 0.198 1 0.198zM30.007 31.48c-0.906 0-1.697-0.173-2.372-0.519s-1.19-0.815-1.544-1.408c-0.354-0.601-0.531-1.268-0.531-2.001 0-0.79 0.202-1.494 0.605-2.112 0.412-0.626 0.971-1.108 1.68-1.445 0.716-0.346 1.515-0.519 2.396-0.519 0.387 0 0.778 0.033 1.173 0.099 0.395 0.058 0.712 0.136 0.951 0.235 0.074 0.025 0.12 0.058 0.136 0.099 0.025 0.033 0.042 0.095 0.049 0.185l0.161 1.717c0 0.025-0.021 0.041-0.062 0.049s-0.070-0.004-0.086-0.037c-0.288-0.634-0.687-1.128-1.198-1.482-0.502-0.354-1.078-0.531-1.729-0.531-0.84 0-1.482 0.292-1.927 0.877-0.436 0.584-0.655 1.383-0.655 2.396 0 0.815 0.14 1.544 0.42 2.186 0.28 0.634 0.667 1.128 1.161 1.482 0.461 0.325 1.035 0.519 1.654 0.519 0.009 0 0.018-0 0.027-0h-0.001c0.337 0 0.597-0.037 0.778-0.111s0.313-0.218 0.395-0.432c0.083-0.214 0.123-0.531 0.123-0.951 0-0.428-0.025-0.724-0.074-0.889-0.041-0.164-0.162-0.293-0.318-0.345l-0.003-0.001c-0.156-0.058-0.432-0.086-0.828-0.086-0.049 0-0.074-0.033-0.074-0.099 0-0.025 0.005-0.045 0.012-0.062 0.017-0.025 0.033-0.037 0.049-0.037 0.7 0.041 1.264 0.062 1.692 0.062 0.42 0 0.857-0.012 1.309-0.037 0.017 0 0.029 0.012 0.037 0.037 0.017 0.017 0.025 0.033 0.025 0.049 0 0.058-0.020 0.086-0.062 0.086-0.148-0.008-0.251 0.021-0.309 0.086-0.057 0.058-0.095 0.181-0.111 0.371-0.017 0.181-0.025 0.511-0.025 0.988 0 0.371 0.012 0.634 0.037 0.79 0.033 0.157 0.049 0.255 0.049 0.296 0 0.049-0.012 0.083-0.037 0.099-0.031 0.023-0.069 0.041-0.109 0.049l-0.002 0c-1.062 0.23-2.017 0.346-2.865 0.346zM39.958 29.368c0-0.017 0.016-0.025 0.049-0.025 0.001-0 0.001-0 0.002-0 0.023 0 0.044 0.009 0.060 0.025v0c0.025 0.008 0.037 0.017 0.037 0.025-0.074 0.523-0.119 1.131-0.123 1.749l-0 0.005c0 0.066-0.012 0.115-0.037 0.148-0.025 0.025-0.074 0.037-0.148 0.037h-5.459c-0.025 0-0.037-0.025-0.037-0.074s0.012-0.074 0.037-0.074c0.263 0 0.453-0.021 0.568-0.062 0.116-0.034 0.207-0.121 0.246-0.232l0.001-0.003c0.041-0.123 0.062-0.309 0.062-0.556v-5.718c0-0.247-0.021-0.428-0.062-0.543-0.040-0.114-0.131-0.2-0.244-0.234l-0.003-0.001c-0.123-0.049-0.313-0.074-0.568-0.074-0.025 0-0.037-0.025-0.037-0.074s0.012-0.074 0.037-0.074h5.237c0.082 0 0.123 0.037 0.123 0.111l0.025 1.643c0 0.017-0.025 0.029-0.074 0.037-0.042 0.008-0.066 0-0.074-0.025-0.132-0.477-0.354-0.831-0.667-1.062s-0.725-0.346-1.235-0.346h-0.371c-0.247 0-0.428 0.053-0.543 0.161s-0.173 0.272-0.173 0.494v2.52h1.025c0.477 0 0.844-0.083 1.099-0.247s0.383-0.395 0.383-0.692c0-0.025 0.020-0.037 0.062-0.037 0.049 0 0.074 0.012 0.074 0.037l-0.012 1.112 0.012 0.593c0.016 0.28 0.025 0.502 0.025 0.667 0 0.017-0.025 0.025-0.074 0.025s-0.074-0.008-0.074-0.025c0-0.337-0.132-0.601-0.395-0.79-0.255-0.198-0.626-0.296-1.112-0.296h-1.013v2.791c0 0.239 0.045 0.415 0.136 0.531s0.235 0.173 0.432 0.173h0.408c0.642 0 1.157-0.132 1.544-0.395s0.671-0.671 0.852-1.223zM49.688 31.183c0.025 0 0.037 0.025 0.037 0.074s-0.012 0.074-0.037 0.074c-0.288 0-0.519-0.004-0.692-0.012l-0.951-0.012-1.112 0.012c-0.148 0.008-0.35 0.012-0.605 0.012-0.025 0-0.037-0.025-0.037-0.074s0.012-0.074 0.037-0.074c0.305 0 0.527-0.021 0.667-0.062s0.235-0.12 0.284-0.235 0.074-0.3 0.074-0.556v-2.841h-3.989v2.841c0 0.247 0.025 0.432 0.074 0.556 0.049 0.115 0.144 0.194 0.284 0.235s0.363 0.062 0.667 0.062c0.017 0 0.025 0.025 0.025 0.074s-0.008 0.074-0.025 0.074c-0.288 0-0.519-0.004-0.692-0.012l-1.075-0.012-0.926 0.012c-0.179 0.008-0.39 0.013-0.601 0.013-0.027 0-0.055-0-0.082-0l0.004 0c-0.016 0-0.025-0.025-0.025-0.074s0.008-0.074 0.025-0.074c0.289 0 0.499-0.021 0.63-0.062 0.123-0.034 0.221-0.12 0.271-0.232l0.001-0.003c0.049-0.123 0.074-0.309 0.074-0.556v-5.718c0-0.247-0.025-0.428-0.074-0.543-0.050-0.115-0.149-0.201-0.269-0.234l-0.003-0.001c-0.123-0.049-0.325-0.074-0.605-0.074-0.025 0-0.037-0.025-0.037-0.074s0.012-0.074 0.037-0.074l0.667 0.012c0.379 0.017 0.684 0.025 0.914 0.025 0.386-0.001 0.767-0.010 1.145-0.027l-0.058 0.002 0.679-0.012c0.017 0 0.025 0.025 0.025 0.074s-0.008 0.074-0.025 0.074c-0.296 0-0.514 0.025-0.655 0.074-0.132 0.043-0.237 0.136-0.295 0.256l-0.001 0.003c-0.049 0.115-0.074 0.296-0.074 0.543v2.507h3.989v-2.507c0-0.247-0.025-0.428-0.074-0.543-0.049-0.123-0.144-0.21-0.284-0.259s-0.362-0.074-0.667-0.074c-0.025 0-0.037-0.025-0.037-0.074s0.012-0.074 0.037-0.074l0.605 0.012c0.412 0.017 0.783 0.025 1.112 0.025 0.222 0 0.539-0.008 0.951-0.025l0.692-0.012c0.025 0 0.037 0.025 0.037 0.074s-0.012 0.074-0.037 0.074c-0.28 0-0.49 0.025-0.63 0.074-0.123 0.034-0.221 0.12-0.271 0.232l-0.001 0.003c-0.041 0.115-0.062 0.296-0.062 0.543v5.718c0 0.247 0.021 0.432 0.062 0.556 0.049 0.115 0.14 0.194 0.272 0.235s0.342 0.062 0.63 0.062zM54.599 31.48c-0.766 0-1.449-0.177-2.050-0.531-0.585-0.357-1.054-0.851-1.373-1.437l-0.010-0.020c-0.304-0.574-0.482-1.255-0.482-1.977 0-0.013 0-0.025 0-0.038v0.002c0-0.848 0.214-1.573 0.642-2.174 0.414-0.593 0.969-1.061 1.618-1.361l0.025-0.010c0.675-0.305 1.363-0.457 2.063-0.457 0.782 0 1.47 0.185 2.063 0.556 0.579 0.351 1.041 0.841 1.349 1.425l0.010 0.020c0.303 0.55 0.482 1.206 0.482 1.904 0 0.004 0 0.007 0 0.011v-0.001c0 0.749-0.198 1.437-0.593 2.063-0.398 0.624-0.935 1.126-1.571 1.471l-0.022 0.011c-0.61 0.342-1.339 0.544-2.115 0.544-0.012 0-0.024-0-0.036-0h0.002zM55.007 31.171c0.461 0 0.873-0.132 1.235-0.395 0.371-0.272 0.659-0.662 0.865-1.173 0.206-0.519 0.309-1.136 0.309-1.853 0-0.758-0.115-1.433-0.346-2.026-0.231-0.601-0.564-1.071-1-1.408s-0.947-0.506-1.532-0.506c-0.749 0-1.325 0.284-1.729 0.852-0.404 0.56-0.605 1.346-0.605 2.359 0 0.799 0.12 1.515 0.358 2.149 0.247 0.626 0.581 1.116 1 1.47 0.428 0.354 0.909 0.531 1.445 0.531zM64.587 31.48c-0.906 0-1.696-0.173-2.371-0.519s-1.19-0.815-1.544-1.408c-0.354-0.601-0.531-1.268-0.531-2.001 0-0.79 0.202-1.494 0.605-2.112 0.411-0.626 0.972-1.108 1.68-1.445 0.716-0.346 1.515-0.519 2.396-0.519 0.387 0 0.778 0.033 1.173 0.099 0.395 0.058 0.712 0.136 0.951 0.235 0.074 0.025 0.12 0.058 0.136 0.099 0.025 0.033 0.041 0.095 0.049 0.185l0.161 1.717c0 0.025-0.021 0.041-0.062 0.049s-0.070-0.004-0.086-0.037c-0.288-0.634-0.688-1.128-1.198-1.482-0.502-0.354-1.078-0.531-1.729-0.531-0.84 0-1.482 0.292-1.927 0.877-0.436 0.584-0.655 1.383-0.655 2.396 0 0.815 0.14 1.544 0.42 2.186 0.28 0.634 0.667 1.128 1.161 1.482 0.461 0.325 1.035 0.519 1.654 0.519 0.009 0 0.018-0 0.027-0h-0.001c0.337 0 0.597-0.037 0.778-0.111s0.313-0.218 0.395-0.432c0.083-0.214 0.124-0.531 0.124-0.951 0-0.428-0.025-0.724-0.074-0.889-0.041-0.164-0.162-0.293-0.318-0.345l-0.003-0.001c-0.157-0.058-0.432-0.086-0.828-0.086-0.049 0-0.074-0.033-0.074-0.099-0-0.002-0-0.003-0-0.005 0-0.021 0.005-0.040 0.013-0.057l-0 0.001c0.016-0.025 0.033-0.037 0.049-0.037 0.7 0.041 1.264 0.062 1.692 0.062 0.42 0 0.856-0.012 1.309-0.037 0.016 0 0.029 0.012 0.037 0.037 0.016 0.017 0.025 0.033 0.025 0.049 0 0.058-0.021 0.086-0.062 0.086-0.148-0.008-0.251 0.021-0.309 0.086-0.058 0.058-0.095 0.181-0.111 0.371-0.016 0.181-0.025 0.511-0.025 0.988 0 0.371 0.012 0.634 0.037 0.79 0.033 0.157 0.049 0.255 0.049 0.296 0 0.049-0.012 0.083-0.037 0.099-0.031 0.023-0.069 0.041-0.109 0.049l-0.002 0c-1.062 0.23-2.017 0.346-2.865 0.346zM48.685 10.104h17.561v0.732h-17.561v-0.732zM1.123 10.104h16.829v0.732h-16.829v-0.732z"></path>
</symbol>
<symbol id="icon-hedgehog" viewBox="0 0 32 32">
<path fill="#9b9b9a" style="fill: var(--color2, #9b9b9a)" d="M6.039 15.816s-1.852 2.296-1.63 3.704l-1.259 1.111v0.667s3.037 1.259 5.926 0.37v1.111l0.074 1.111 1.481 0.592s1.704-0.296 2.148-2.667c0 0 1.778 0.667 2.519 2.593l2.074-0.148s0.296-1.111-0.074-1.852l9.111-0.148 0.889 0.815v0.889l0.444 0.518h0.963l0.74-0.815-0.815-2.889 0.667-2.074s-7.704 4.667-18.37-1.407l-0.815-1.704s-1.704 0.296-1.63 0.741c0 0-0.371-1.185-2.444-0.518h0z"></path>
<path fill="none" stroke="#195557" style="stroke: var(--color1, #195557)" stroke-linejoin="round" stroke-linecap="round" stroke-miterlimit="10" stroke-width="0.8889" d="M10.872 11.839c-0.38 1-0.815 1.464-1.162 1.816-0.126 0.13-0.302 0.21-0.497 0.21-0.161 0-0.309-0.055-0.426-0.147l0.002 0.001-0.526-0.412-1.522 2.246c-0.197 0.288-0.524 0.474-0.894 0.474-0 0-0 0-0 0v0s-1.188 1.454-1.601 3.025c-0.116 0.44-0.392 0.822-0.757 1.094l-0.169 0.127s-1.044 0.872 0.202 1.251c0 0 4.277 1.351 6.647-0.538M18.391 9.913s-0.811 0.545-1.422 0.662c-0.262 0.050-0.516 0.102-0.762 0.156l-1.408-0.299c-0.698 0.798-1.668 1.178-2.352 1.477M26.65 12.802c-0.883 0-1.133-0.068-1.631-0.47-0.384-0.31-0.705-0.679-0.955-1.095l-0.010-0.019-0.181-0.307c-1.174 0-2.43-0.142-3.577-0.331M29.446 17.111c-1.376-0.513-1.571-1.962-2.026-2.549M9.252 22.998l-0.101 0.21c-0.055 0.113-0.088 0.245-0.088 0.385 0 0.491 0.398 0.889 0.888 0.889h0.723c0 0 0 0 0.001 0 0.336 0 0.628-0.186 0.779-0.461l0.002-0.005 1.264-2.339s1.556 0.644 2.113 2.238c0.121 0.347 0.466 0.567 0.834 0.567h0.899c0.001 0 0.001 0 0.002 0 0.49 0 0.888-0.397 0.888-0.888 0-0.033-0.002-0.065-0.005-0.097l0 0.004c-0.046-0.412-0.129-0.84-0.281-1.028 0 0 6.736 0.194 8.892-0.272 0.455-0.099 0.908 0.177 1.009 0.632 0.049 0.22 0.078 0.468 0.063 0.728-0.028 0.507 0.379 0.922 0.886 0.922h0.173c0.5 0 0.889-0.356 0.921-0.819 0.055-0.775-0.006-1.952-0.688-2.858 0 0 0.504-0.441 0.494-1.816M8.538 16.541s0.944-1.479 1.787-0.152c0.568 0.896-0.137 2.241-0.656 3.021-0.169 0.252-0.453 0.415-0.776 0.415-0.128 0-0.25-0.026-0.361-0.073l0.006 0.002M12.187 15.376l2.222-1.833M14.020 17.831l2.667-0.915M16.409 14.562l2.688-1.241M17.753 19.321l3.045-0.332M21.687 16.281l3.056 0.548M20.864 14.44l2.424-1.112M23.573 19.453l2.783 0.745"></path>
</symbol>
<symbol id="icon-syringe" viewBox="0 0 32 32">
<path fill="#195557" style="fill: var(--color1, #195557)" d="M23.219 3.781l-1.438 1.439 0.375 0.375-2.282 2.281 1.407 1.438 2.283-2.314 1.437 1.438-2.313 2.28 1.438 1.407 2.281-2.282 0.375 0.376 1.439-1.439-5.001-4.999zM17.719 7.281l-1.439 1.439 0.657 0.656-10.281 10.311 0.063 0.47 0.344 3.187 0.032 0.343 0.093 0.063-3.249 3.25h2.844l2.032-2.031 3.030 0.313 0.47 0.063 0.344-0.344 9.969-9.937 0.656 0.657 1.438-1.438-7.001-7zM18.375 10.813l2.813 2.812-9.594 9.625-2.375-0.281-0.188-0.188-0.281-2.375 9.625-9.593z"></path>
</symbol>
<symbol id="icon-basket" viewBox="0 0 35 32">
<path fill="#195557" style="fill: var(--color1, #195557)" d="M11.899 31.785c1.392 0 2.52-1.060 2.52-2.367s-1.128-2.366-2.52-2.366c-1.391 0-2.519 1.060-2.519 2.366 0 1.308 1.128 2.367 2.519 2.367zM27.204 31.785c1.391 0 2.519-1.060 2.519-2.367s-1.128-2.366-2.519-2.366-2.52 1.060-2.52 2.366c0 1.308 1.128 2.367 2.52 2.367zM34.010 3.775c-0.105-0.12-0.233-0.216-0.378-0.282l-0.007-0.003c-0.14-0.065-0.304-0.103-0.477-0.104h-23.309l0.728 2.104h21.114l-2.989 12.621h-16.793l-5.116-15.219c-0.059-0.169-0.155-0.313-0.279-0.427l-0.001-0.001c-0.126-0.117-0.281-0.205-0.451-0.255l-0.008-0.002-4.589-1.325c-0.099-0.030-0.213-0.047-0.331-0.047-0.191 0-0.372 0.045-0.533 0.125l0.007-0.003c-0.264 0.132-0.461 0.356-0.549 0.624s-0.058 0.557 0.081 0.805 0.378 0.433 0.664 0.515l4.019 1.158 5.139 15.251-1.836 1.41-0.146 0.136c-0.434 0.463-0.707 1.082-0.727 1.764l-0 0.004c-0 0.017-0.001 0.037-0.001 0.058 0 0.665 0.242 1.274 0.642 1.744l-0.003-0.004c0.305 0.349 0.693 0.626 1.132 0.809s0.919 0.265 1.399 0.244h18.684c0.297 0 0.582-0.111 0.792-0.309s0.328-0.465 0.328-0.744c0-0.28-0.119-0.546-0.328-0.744-0.206-0.191-0.483-0.309-0.787-0.309-0.001 0-0.003 0-0.004 0h-18.866c-0.135-0.004-0.259-0.042-0.368-0.105l0.004 0.002c-0.11-0.063-0.199-0.15-0.263-0.254l-0.002-0.003c-0.060-0.098-0.095-0.217-0.095-0.344 0-0.128 0.036-0.248 0.099-0.35l-0.002 0.003 2.698-2.104h17.285c0.009 0 0.020 0 0.031 0 0.258 0 0.496-0.083 0.689-0.225l-0.003 0.002c0.204-0.151 0.346-0.361 0.404-0.599l3.548-14.726c0.015-0.064 0.023-0.137 0.023-0.212 0-0.093-0.013-0.183-0.037-0.269l0.002 0.007c-0.046-0.164-0.127-0.305-0.234-0.421l0.001 0.001z"></path>
</symbol>
<symbol id="icon-heart" viewBox="0 0 32 32">
<path fill="#195557" style="fill: var(--color1, #195557)" d="M28.844 8.863c-0.442-1.007-1.041-1.866-1.777-2.586l-0.001-0.001c-0.735-0.721-1.606-1.306-2.57-1.714l-0.054-0.020c-0.94-0.401-2.034-0.635-3.182-0.635-0.006 0-0.013 0-0.019 0h0.001c-0.001 0-0.003 0-0.004 0-1.99 0-3.818 0.697-5.252 1.859l0.016-0.012c-1.419-1.15-3.246-1.847-5.236-1.847-0.001 0-0.003 0-0.004 0h0c-1.109 0-2.184 0.213-3.2 0.634-1.019 0.428-1.891 1.013-2.627 1.736l0.001-0.001c-1.501 1.466-2.433 3.51-2.435 5.771v0c0 1.040 0.213 2.125 0.635 3.228 0.353 0.922 0.86 1.878 1.506 2.844 1.025 1.528 2.434 3.122 4.185 4.738 2.899 2.678 5.772 4.528 5.894 4.603l0.74 0.476c0.153 0.099 0.339 0.157 0.54 0.157s0.387-0.059 0.543-0.16l-0.004 0.002 0.74-0.476c0.121-0.077 2.99-1.924 5.894-4.603 1.749-1.615 3.159-3.21 4.184-4.738 0.647-0.966 1.156-1.922 1.506-2.844 0.422-1.103 0.634-2.188 0.634-3.228 0-0.008 0-0.018 0-0.028 0-1.141-0.24-2.226-0.673-3.207l0.020 0.051zM16 25.462s-11.126-7.128-11.126-13.415c0-3.184 2.634-5.766 5.885-5.766 2.285 0 4.266 1.276 5.241 3.137 0.975-1.862 2.957-3.138 5.241-3.138 3.25 0 5.884 2.582 5.884 5.766 0 6.288-11.125 13.415-11.125 13.415z"></path>
<path fill="#000" style="fill: var(--color3, #000)" opacity="0.1" d="M21.241 6.281c-2.285 0-4.266 1.276-5.241 3.137-0.975-1.862-2.957-3.138-5.241-3.138-3.25 0-5.884 2.582-5.884 5.766 0 6.288 11.125 13.415 11.125 13.415s11.126-7.128 11.126-13.415c0-3.184-2.634-5.766-5.885-5.766z"></path>
</symbol>
</defs>
</svg>
