<svg width="24" height="23" viewBox="0 0 24 23" fill="none" xmlns="http://www.w3.org/2000/svg">
<path d="M18.7678 0.544708L17.4188 1.89377L17.7703 2.24533L15.6319 4.38377L16.95 5.7319L19.0903 3.56252L20.4375 4.91065L18.2691 7.04815L19.6172 8.36721L21.7556 6.22877L22.1072 6.58033L23.4563 5.23127L18.7678 0.544708ZM13.6116 3.82596L12.2625 5.17502L12.8785 5.79002L3.56252 15.135L3.24002 15.4566L3.29908 15.8972L3.62064 18.885L3.65064 19.2066L3.73783 19.2656L0.691895 22.3125H3.35814L5.26314 20.4085L8.10377 20.701L8.54439 20.76L8.86596 20.4375L18.2119 11.1206L18.8269 11.7366L20.175 10.3885L13.6116 3.82596ZM14.2266 7.13721L16.8638 9.77346L7.86939 18.7969L5.64283 18.5335L5.46658 18.3572L5.20314 16.1306L14.2266 7.13721Z" fill="#195557"/>
</svg>
