<svg width="38" height="35" viewBox="0 0 38 35" fill="none" xmlns="http://www.w3.org/2000/svg">
<g filter="url(#filter0_d_1345_319)">
<path d="M24.465 12.1383C25.0617 11.77 25.46 11.27 25.6533 10.6317C25.1067 10.9276 24.52 11.1426 23.9117 11.27C23.6629 10.9964 23.3583 10.7793 23.0184 10.6335C22.6786 10.4877 22.3114 10.4166 21.9417 10.425C21.1683 10.425 20.5167 10.6967 19.9833 11.2233C19.7264 11.474 19.5232 11.7745 19.3862 12.1063C19.2493 12.4381 19.1814 12.7944 19.1867 13.1533C19.1867 13.3817 19.215 13.5867 19.2733 13.76C16.9933 13.68 15.1083 12.7367 13.6217 10.9167C13.3778 11.3311 13.2473 11.8025 13.2433 12.2833C13.2433 13.2467 13.65 14.01 14.46 14.5717C14.0344 14.5429 13.6197 14.4242 13.2433 14.2233C13.2433 14.9117 13.445 15.4867 13.8517 15.9933C14.2567 16.4933 14.78 16.8133 15.4167 16.9483C15.1797 17.0083 14.9361 17.038 14.6917 17.0367C14.5248 17.0462 14.3577 17.0253 14.1983 16.975C14.3717 17.5367 14.6917 17.99 15.155 18.3383C15.6167 18.6883 16.15 18.8717 16.75 18.8883C15.787 19.654 14.5885 20.0627 13.3583 20.045C13.045 20.045 12.825 20.0417 12.6917 20.0167C13.9411 20.8293 15.4029 21.2544 16.8933 21.2383C18.4783 21.2383 19.88 20.8367 21.0967 20.0333C22.3133 19.235 23.215 18.25 23.7917 17.0883C24.3627 15.9659 24.6602 14.7243 24.66 13.465V13.1167C25.22 12.695 25.675 12.22 26.0233 11.6933C25.5275 11.9144 25.0028 12.0643 24.465 12.1383ZM19 30C14.85 30 11.275 28.5167 8.37333 25.59C5.47167 22.6717 4 19.1083 4 15C4 10.8533 5.47333 7.27667 8.37833 4.375C11.2783 1.47333 14.8517 0 19 0C23.11 0 26.6733 1.47167 29.59 4.37333C32.5167 7.27667 34 10.8533 34 15C34 19.1083 32.5183 22.6733 29.5933 25.595C26.675 28.5167 23.1117 30 19 30ZM19 3.33333C15.7233 3.33333 13.02 4.445 10.7367 6.73333C8.445 9.02 7.33333 11.7233 7.33333 15C7.33333 18.24 8.44667 20.9367 10.7383 23.2417C13.025 25.5467 15.7267 26.6667 19 26.6667C22.2383 26.6667 24.9333 25.545 27.2367 23.2383C29.545 20.9317 30.6667 18.235 30.6667 15C30.6667 11.7283 29.5467 9.025 27.2417 6.73833C24.9367 4.44667 22.2417 3.33333 19 3.33333Z" fill="white"/>
</g>
<defs>
<filter id="filter0_d_1345_319" x="0" y="0" width="38" height="38" filterUnits="userSpaceOnUse" color-interpolation-filters="sRGB">
<feFlood flood-opacity="0" result="BackgroundImageFix"/>
<feColorMatrix in="SourceAlpha" type="matrix" values="0 0 0 0 0 0 0 0 0 0 0 0 0 0 0 0 0 0 127 0" result="hardAlpha"/>
<feOffset dy="4"/>
<feGaussianBlur stdDeviation="2"/>
<feColorMatrix type="matrix" values="0 0 0 0 0 0 0 0 0 0 0 0 0 0 0 0 0 0 0.25 0"/>
<feBlend mode="normal" in2="BackgroundImageFix" result="effect1_dropShadow_1345_319"/>
<feBlend mode="normal" in="SourceGraphic" in2="effect1_dropShadow_1345_319" result="shape"/>
</filter>
</defs>
</svg>
