<svg width="39" height="23" viewBox="0 0 39 23" fill="none" xmlns="http://www.w3.org/2000/svg">
<path d="M12.6122 4.43671C12.0928 5.80203 11.5 6.43554 11.026 6.91614C10.8639 7.08315 10.6459 7.18452 10.4137 7.20086C10.1815 7.21721 9.95145 7.14738 9.76752 7.00473L9.04906 6.44282L6.97133 9.50965C6.83621 9.70909 6.65427 9.87239 6.44143 9.98526C6.22859 10.0981 5.99134 10.1571 5.75043 10.1571C5.75043 10.1571 4.12903 12.142 3.5647 14.2871C3.40693 14.8884 3.02949 15.4097 2.53069 15.781L2.2995 15.954C2.2995 15.954 0.873491 17.1445 2.5756 17.6622C2.5756 17.6622 8.41494 19.5063 11.6511 16.9273" stroke="#195557" stroke-width="2" stroke-miterlimit="10" stroke-linecap="round" stroke-linejoin="round"/>
<path d="M22.8771 1.80737C22.8771 1.80737 21.7703 2.55193 20.9353 2.71091C20.5773 2.77948 20.2302 2.85048 19.8946 2.9233L17.9722 2.51552C17.0189 3.60475 15.6943 4.12357 14.7616 4.53256" stroke="#195557" stroke-width="2" stroke-miterlimit="10" stroke-linecap="round" stroke-linejoin="round"/>
<path d="M34.154 5.75165C32.9489 5.75165 32.6067 5.65881 31.927 5.11025C31.4 4.68629 30.9536 4.17099 30.609 3.58898L30.3615 3.17028C28.7589 3.17028 27.044 2.9761 25.4778 2.71881" stroke="#195557" stroke-width="2" stroke-miterlimit="10" stroke-linecap="round" stroke-linejoin="round"/>
<path d="M37.9715 11.6347C36.0928 10.9344 35.827 8.95559 35.2056 8.1546" stroke="#195557" stroke-width="2" stroke-miterlimit="10" stroke-linecap="round" stroke-linejoin="round"/>
<path d="M10.4004 19.6719L10.2627 19.9589C10.1737 20.1439 10.1331 20.3485 10.1446 20.5534C10.1562 20.7584 10.2196 20.9571 10.3288 21.1309C10.438 21.3047 10.5896 21.4479 10.7693 21.5472C10.9489 21.6465 11.1509 21.6986 11.3561 21.6987H12.3434C12.5622 21.6988 12.777 21.6398 12.965 21.5278C13.153 21.4159 13.3073 21.2552 13.4114 21.0627L15.1378 17.8691C15.1378 17.8691 17.2622 18.749 18.0226 20.925C18.1882 21.3989 18.6591 21.6987 19.1609 21.6987H20.3885C20.5586 21.6991 20.7269 21.6637 20.8825 21.5948C21.038 21.5258 21.1773 21.4249 21.2912 21.2986C21.4051 21.1722 21.4911 21.0233 21.5437 20.8615C21.5962 20.6997 21.6141 20.5286 21.5961 20.3594C21.5336 19.7963 21.4195 19.2126 21.212 18.9559C21.212 18.9559 30.4088 19.2211 33.3524 18.5845C33.9738 18.4498 34.5928 18.826 34.7299 19.4468C34.7966 19.7478 34.8361 20.0852 34.8161 20.4401C34.7772 21.1319 35.3337 21.6987 36.026 21.6987H36.2627C36.9448 21.6987 37.4763 21.2132 37.5206 20.5809C37.5953 19.5226 37.5121 17.9158 36.5813 16.6785C36.5813 16.6785 37.2688 16.0766 37.256 14.1985" stroke="#195557" stroke-width="2" stroke-miterlimit="10" stroke-linecap="round" stroke-linejoin="round"/>
<path d="M9.42468 10.8567C9.42468 10.8567 10.7135 8.83787 11.8641 10.6492C12.6402 11.8719 11.6772 13.7087 10.969 14.7743C10.8058 15.0192 10.5628 15.1999 10.2814 15.2858C9.99989 15.3717 9.69737 15.3573 9.42529 15.2452V15.2452" stroke="#195557" stroke-width="2" stroke-miterlimit="10" stroke-linecap="round" stroke-linejoin="round"/>
<path d="M14.4072 9.26628L17.4413 6.76318" stroke="#195557" stroke-width="2" stroke-miterlimit="10" stroke-linecap="round" stroke-linejoin="round"/>
<path d="M16.9103 12.6177L20.5511 11.3689" stroke="#195557" stroke-width="2" stroke-miterlimit="10" stroke-linecap="round" stroke-linejoin="round"/>
<path d="M20.1719 8.1546L23.8413 6.45978" stroke="#195557" stroke-width="2" stroke-miterlimit="10" stroke-linecap="round" stroke-linejoin="round"/>
<path d="M22.0063 14.6518L26.1642 14.1985" stroke="#195557" stroke-width="2" stroke-miterlimit="10" stroke-linecap="round" stroke-linejoin="round"/>
<path d="M27.3778 10.5018L31.5496 11.2494" stroke="#195557" stroke-width="2" stroke-miterlimit="10" stroke-linecap="round" stroke-linejoin="round"/>
<path d="M26.254 7.98772L29.5635 6.46887" stroke="#195557" stroke-width="2" stroke-miterlimit="10" stroke-linecap="round" stroke-linejoin="round"/>
<path d="M29.9531 14.832L33.7524 15.8496" stroke="#195557" stroke-width="2" stroke-miterlimit="10" stroke-linecap="round" stroke-linejoin="round"/>
</svg>
